<svg xmlns:xlink="http://www.w3.org/1999/xlink" xmlns="http://www.w3.org/2000/svg" viewBox="0 0 32 32" fill="none" width="32"  height="32" >
<path d="M32 13.5926C32 6.41463 24.8221 0.600098 16 0.600098C7.17794 0.600098 0 6.41463 0 13.5926C0 20.0086 5.69424 25.3821 13.3935 26.4247C13.9148 26.545 14.6366 26.7856 14.797 27.2267C14.9574 27.6277 14.9173 28.2693 14.8371 28.6703C14.8371 28.6703 14.6366 29.7931 14.5965 30.0337C14.5163 30.4347 14.2757 31.5976 16 30.9159C17.7243 30.1941 25.2231 25.5024 28.5915 21.6126C30.8772 19.0462 32 16.4397 32 13.5926Z" fill="#00B900"/>
<path d="M12.7473 10.1431H11.6245C11.4641 10.1431 11.3037 10.2634 11.3037 10.4639V17.4413C11.3037 17.6017 11.424 17.7621 11.6245 17.7621H12.7473C12.9077 17.7621 13.0681 17.6418 13.0681 17.4413V10.4238C13.0681 10.2634 12.9077 10.1431 12.7473 10.1431Z" fill="white"/>
<path d="M20.4893 10.1431H19.3665C19.2061 10.1431 19.0457 10.2634 19.0457 10.4639V14.5942L15.8377 10.2634C15.8377 10.2634 15.8377 10.2233 15.7976 10.2233H14.6748C14.5144 10.2233 14.354 10.3436 14.354 10.5441V17.5215C14.354 17.6819 14.4743 17.8423 14.6748 17.8423H15.5971C15.7575 17.8423 15.9179 17.722 15.9179 17.5215V13.2709L19.1259 17.6017C19.166 17.6418 19.166 17.6418 19.2061 17.6819C19.2061 17.6819 19.2061 17.6819 19.2462 17.6819C19.2863 17.6819 19.2863 17.6819 19.3264 17.6819H20.4492C20.6096 17.6819 20.77 17.5616 20.77 17.3611V10.4238C20.77 10.2634 20.6497 10.1431 20.4893 10.1431Z" fill="white"/>
<path d="M10.021 15.997H6.97333V10.4231C6.97333 10.2627 6.85303 10.1023 6.65253 10.1023H5.56983C5.40942 10.1023 5.24902 10.2226 5.24902 10.4231V17.4005C5.24902 17.4807 5.28912 17.5609 5.32922 17.601C5.36932 17.6411 5.44952 17.6812 5.52973 17.6812H10.021C10.1814 17.6812 10.3418 17.5609 10.3418 17.3604V16.2376C10.3418 16.1173 10.2215 15.997 10.021 15.997Z" fill="white"/>
<path d="M26.663 11.8665C26.8234 11.8665 26.9838 11.7462 26.9838 11.5457V10.4229C26.9838 10.2625 26.8635 10.1021 26.663 10.1021H22.1718C22.0916 10.1021 22.0114 10.1422 21.9713 10.1823C21.9312 10.2224 21.8911 10.3026 21.8911 10.3828V17.3602C21.8911 17.4404 21.9312 17.5206 21.9713 17.5607C22.0114 17.6008 22.0916 17.6409 22.1718 17.6409H26.663C26.8234 17.6409 26.9838 17.5206 26.9838 17.3201V16.1973C26.9838 16.0369 26.8635 15.8765 26.663 15.8765H23.6154V14.7136H26.663C26.8234 14.7136 26.9838 14.5933 26.9838 14.3928V13.27C26.9838 13.1096 26.8635 12.9492 26.663 12.9492H23.6154V11.7863H26.663V11.8665Z" fill="white"/>
</svg>