<svg xmlns="http://www.w3.org/2000/svg" width="97.504" height="27.555" viewBox="0 0 97.504 27.555"><g transform="translate(0 0)"><path d="M16.732-49.9,5.473-58.441v21.5h4.4V-49.678l6.863,4.963L23.6-49.678v12.734h4.368v-21.5Zm0,0" transform="translate(-5.473 58.441)" fill="#050a30"/></g><g transform="translate(25.61 0.141)"><g transform="translate(0 0)"><path d="M5.256-53.548a2.351,2.351,0,0,0,2.41-2.3,2.338,2.338,0,0,0-2.41-2.213A2.356,2.356,0,0,0,2.93-55.846,2.35,2.35,0,0,0,5.256-53.548ZM7.3-51.025H3.27V-36.7H7.3Zm0,0" transform="translate(-2.93 58.059)" fill="#050a30"/></g></g><g transform="translate(32.814 6.473)"><g transform="translate(0 0)"><path d="M17.838-32.3a3.264,3.264,0,0,1,3.091-3.46c1.616,0,2.95,1.276,2.95,3.46v7.147h4V-32.3c0-4.141-2.127-7.488-6.523-7.488a6.385,6.385,0,0,0-5.105,2.269A5.873,5.873,0,0,0,11.4-39.785a5.1,5.1,0,0,0-3.516,1.3v-.993H3.855v14.323H7.883V-32.3c0-1.9,1.332-3.46,2.835-3.46,1.816,0,3.092.993,3.092,3.46v7.147h4.028Zm0,0" transform="translate(-3.855 39.785)" fill="#050a30"/></g></g><g transform="translate(59.132 0.141)"><g transform="translate(0 0)"><path d="M5.256-53.548a2.351,2.351,0,0,0,2.41-2.3,2.338,2.338,0,0,0-2.41-2.213A2.356,2.356,0,0,0,2.93-55.846,2.35,2.35,0,0,0,5.256-53.548ZM7.3-51.025H3.27V-36.7H7.3Zm0,0" transform="translate(-2.93 58.059)" fill="#050a30"/></g></g><g transform="translate(66.336 6.086)"><g transform="translate(0 0)"><path d="M7.883-18.315v-7.857a4.636,4.636,0,0,0,3.4,1.333A7.343,7.343,0,0,0,18.4-32.354a7.215,7.215,0,0,0-7.034-7.432,5.4,5.4,0,0,0-3.487,1.3v-.993H3.855v21.158Zm3.091-17.442a3.32,3.32,0,0,1,3.346,3.431,3.352,3.352,0,0,1-3.346,3.489,3.269,3.269,0,0,1-3.262-3.489A3.236,3.236,0,0,1,10.974-35.758Zm0,0" transform="translate(-3.855 39.785)" fill="#050a30"/></g></g><g transform="translate(82.529 6.464)"><g transform="translate(0 0)"><path d="M9.666-39.785A7.451,7.451,0,0,0,2.234-32.3a7.463,7.463,0,0,0,7.432,7.459A7.56,7.56,0,0,0,17.21-32.3,7.547,7.547,0,0,0,9.666-39.785Zm0,10.948A3.327,3.327,0,0,1,6.319-32.3a3.344,3.344,0,0,1,3.346-3.46A3.346,3.346,0,0,1,13.1-32.3,3.329,3.329,0,0,1,9.666-28.838Zm0,0" transform="translate(-2.234 39.785)" fill="#050a30"/></g></g></svg>